# xmcd
#
# Track frame offsets:
#	182
#	12767
#	23902
#	34510
#	47252
#	63557
#	77567
#	87502
#	98197
#	110872
#	130742
#	143660
#	163747
#	173960
#	186435
#	198957
#
# Disc length: 2789
#
# Revision: 3
# Processed by: cddbd v1.5.1PL0 Copyright (c) Steve Scherf et al.
# Submitted via: CDex 1.51
# Normalized: r2:DSETVAR1
#
DISCID=d10ae310
DTITLE=Various Artist - Blues Masters, Vol 16: More Harmonica Classics
DYEAR=1900
DGENRE=
TTITLE0=Little Walter and His Jukes - Off The Wall
TTITLE1=Jimmy Reed - Odds and Ends
TTITLE2=Jimmy Cotton Blues Quartet - Cotton Corp Blues
TTITLE3=Sonny Boy Williamson - Keep It To Yourself
TTITLE4=Junior Wells Chicago Blues Band - (Help Me) A Tribute To Sonny Boy Williamson
TTITLE5=The Paul Butterfield Blues Band - Born In Chicago
TTITLE6=Lazy Lester - I Hear You Knockin'
TTITLE7=Papa Lightfoot - Jump The Boogie
TTITLE8=Doctor Ross - Come Back Baby
TTITLE9=William Clarke - Pawnshop Bound
TTITLE10=Slim Harpo - Baby Scratch My Back
TTITLE11=Gary Primich - The Briar Patch
TTITLE12=Howlin' Wolf - All Night Boogie
TTITLE13=Sonny Boy Williamson - Shake The Boogie
TTITLE14=J. Geils Band - Whammer Jammer
TTITLE15=Sonny Terry - Hootin' Blues
EXTD=
EXTT0=
EXTT1=
EXTT2=
EXTT3=
EXTT4=
EXTT5=
EXTT6=
EXTT7=
EXTT8=
EXTT9=
EXTT10=
EXTT11=
EXTT12=
EXTT13=
EXTT14=
EXTT15=
PLAYORDER=
